<?xml version="1.0" encoding="utf-8"?>
<!-- Generator: Adobe Illustrator 16.0.0, SVG Export Plug-In . SVG Version: 6.00 Build 0)  -->
<!DOCTYPE svg PUBLIC "-//W3C//DTD SVG 1.1//EN" "http://www.w3.org/Graphics/SVG/1.1/DTD/svg11.dtd">
<svg version="1.1" id="Layer_1" xmlns="http://www.w3.org/2000/svg" xmlns:xlink="http://www.w3.org/1999/xlink" x="0px" y="0px"
	 width="446.944px" height="446.944px" viewBox="0 0 446.944 446.944" enable-background="new 0 0 446.944 446.944"
	 xml:space="preserve">
<g>
	<g>
		<path fill="#FFFFFF" d="M1,1c149.314,0,298.629,0,447.944,0c0,149.314,0,298.629,0,447.944c-149.314,0-298.629,0-447.944,0
			C1,299.63,1,150.314,1,1z M1.885,224.812C1.86,348.013,101.494,447.836,224.562,447.912
			c123.485,0.075,223.312-99.565,223.35-222.933C447.948,101.587,348.197,1.875,224.729,1.887
			C101.629,1.898,1.91,101.652,1.885,224.812z"/>
		<path fill-rule="evenodd" clip-rule="evenodd" d="M1.885,224.812C1.91,101.652,101.629,1.898,224.729,1.887
			c123.469-0.012,223.22,99.7,223.184,223.093c-0.037,123.367-99.864,223.008-223.35,222.933
			C101.494,447.836,1.86,348.013,1.885,224.812z M9.529,224.644c-0.233,118.822,95.947,215.311,214.864,215.552
			C343.635,440.438,440,344.41,440.195,225.148C440.391,106.038,344.163,9.666,224.899,9.529
			C106.148,9.394,9.763,105.665,9.529,224.644z"/>
		<path fill-rule="evenodd" clip-rule="evenodd" fill="#FFFFFF" d="M9.529,224.644C9.763,105.665,106.148,9.394,224.899,9.529
			c119.264,0.137,215.491,96.508,215.296,215.619C440,344.41,343.635,440.438,224.393,440.195
			C105.476,439.954,9.295,343.466,9.529,224.644z M223.849,23.862c-110.532-0.023-199.95,89.315-199.986,199.807
			c-0.036,110.527,89.306,200.102,199.681,200.2c110.641,0.099,200.336-89.517,200.325-200.147
			C423.857,113.332,334.339,23.885,223.849,23.862z"/>
		<path fill-rule="evenodd" clip-rule="evenodd" d="M223.849,23.862c110.49,0.022,200.008,89.469,200.02,199.86
			c0.012,110.63-89.684,200.246-200.325,200.147c-110.375-0.098-199.717-89.673-199.681-200.2
			C23.899,113.177,113.317,23.839,223.849,23.862z M27.714,223.802c0.001,108.265,87.505,196.035,195.588,196.186
			c108.72,0.151,196.645-87.529,196.686-196.142c0.041-108.393-87.674-196.104-196.14-196.132
			C115.359,27.687,27.713,115.313,27.714,223.802z"/>
		<path fill-rule="evenodd" clip-rule="evenodd" fill="#FFFFFF" d="M27.714,223.802C27.713,115.313,115.359,27.687,223.848,27.714
			c108.466,0.027,196.181,87.739,196.14,196.132c-0.041,108.613-87.966,196.293-196.686,196.142
			C115.219,419.837,27.715,332.067,27.714,223.802z M181.95,305.03c0.28-0.372,0.56-0.743,0.841-1.114
			c6.486,3.427,12.971,6.853,19.458,10.279c0.207-0.418,0.414-0.837,0.622-1.255c-6.288-3.527-12.577-7.055-18.865-10.583
			c0.179-0.351,0.358-0.699,0.537-1.049c6.51,3.292,13.019,6.586,19.529,9.878c0.168-0.342,0.336-0.684,0.504-1.024
			c-6.136-3.467-12.271-6.934-18.407-10.4c0.214-0.372,0.428-0.745,0.643-1.118c6.289,3.282,12.577,6.565,18.865,9.848
			c0.19-0.38,0.38-0.76,0.571-1.14c-6.146-3.465-12.293-6.928-18.44-10.393c0.187-0.357,0.374-0.716,0.561-1.074
			c6.372,3.289,12.744,6.576,19.116,9.864c0.207-0.398,0.415-0.798,0.622-1.196c-6.067-3.393-12.133-6.785-18.201-10.179
			c0.199-0.37,0.397-0.739,0.596-1.108c6.304,3.272,12.607,6.547,18.911,9.819c0.208-0.383,0.417-0.766,0.625-1.149
			c-6.005-3.401-12.009-6.804-18.013-10.205c0.19-0.363,0.381-0.726,0.571-1.089c6.179,3.21,12.358,6.422,18.537,9.633
			c0.194-0.399,0.388-0.799,0.582-1.198c-5.933-3.373-11.867-6.745-17.799-10.118c0.193-0.367,0.386-0.735,0.58-1.104
			c6.044,3.142,12.088,6.281,18.133,9.423c-1.104-2.441-2.775-3.806-4.278-5.336c-3.182-3.238-4.503-7.322-3.002-11.503
			c5.956-16.595,15.889-30.554,28.973-42.833c1.292,1.672,2.315,2.949,3.289,4.266c9.971,13.484,21.331,25.562,35.417,34.863
			c10.736,7.09,12.378,14.136,5.867,25.326c-7.294,12.54-7.117,15.196,1.79,26.649c0.716,0.92,1.459,1.82,2.23,2.694
			c4.766,5.405,6.837,7.545,15.98,2.811c18.266-9.455,32.592-23.035,43.779-40.555c8.647-13.54,19.237-25.846,29.081-38.609
			c2.109-2.736,4.726-5.082,7.754-8.291c-4.841-4.878-9.524-9.535-14.132-14.269c-2.114-2.173-3.79-1.871-5.819,0.246
			c-15.732,16.418-34.809,28.338-54.178,39.809c-1.945,1.152-5.088,2.004-6.969,1.245c-8.166-3.295-12.146-11.836-19.44-16.373
			c-0.253-0.157-0.314-0.591-0.537-0.828c-2.241-2.399-4.113-5.442-6.833-7.034c-5.167-3.023-11.068-4.796-16.224-7.837
			c-12.157-7.173-11.273-5.779-9.53-20.109c0.521-4.282,2.494-6.55,6.893-7.833c28.694-8.371,54.505-22.354,77.091-41.864
			c6.175-5.333,11.25-12.2,15.825-19.036c3.124-4.668,3.923-10.941,10.494-12.393c-5.279-7.976-10.111-15.277-15.377-23.233
			c-4.828,2.37-9.694,4.796-14.602,7.14c-1.303,0.622-3.12,1.778-4.031,1.329c-3.52-1.737-5.204,0.732-7.332,2.485
			c-2.288,1.884-4.548,3.826-6.989,5.496c-3.788,2.59-7.115,5.481-9.636,10.371c2.351-0.432,3.499-0.643,4.649-0.854
			c-0.313-0.193-0.627-0.385-0.939-0.578c-22.43,23.862-44.857,47.725-67.324,71.628c-2.744-6.662-1.717-12.71,1.564-18.54
			c2.835-5.037,6.192-9.849,8.426-15.139c9.124-21.608,17.912-43.357,26.806-65.062c1.854-4.522-0.057-8.303-5.203-10.471
			c-4.801-2.023-6.827-1.171-9.078,4.316c-7.07,17.242-14.041,34.524-21.05,51.791c-1.581,3.896-1.945,7.651,0.616,11.409
			c0.612,0.898,0.7,2.644,0.266,3.68c-1.835,4.376-3.959,8.633-6.273,13.566c-0.45-1.24-0.665-1.643-0.739-2.07
			c-0.341-1.967-0.655-3.941-0.956-5.915c-4.41-28.932-5.042-58.039-4.135-87.228c0.098-3.127-0.032-6.431-0.968-9.361
			c-0.591-1.847-2.695-4.042-4.466-4.408c-1.332-0.275-4.115,1.792-4.672,3.374c-1.418,4.025-2.437,8.324-2.762,12.58
			c-2.778,36.34,0.229,72.229,9.552,107.47c1.476,5.573-0.292,9.511-2.616,13.819c-9.063-2.769-9.063-2.769-6.636-11.504
			c0.223-0.801,0.494-1.595,0.638-2.411c1.77-10.007-5.118-18.297-15.202-17.272c-6.78,0.689-10.731-1.981-13.738-7.469
			c-1.578-2.879-3.464-5.59-5.211-8.377c-0.237,0.167-0.473,0.333-0.71,0.499c0.644,1.213,1.289,2.426,1.59,2.992
			c-6.128-2.324-12.749-4.326-18.899-7.3c-7.057-3.411-13.384-7.969-16.665-15.661c-0.456-1.07-1.883-2.212-3.026-2.42
			c-5.396-0.984-5.575-1.15-2.976-6.22c-13.327-11.874-26.758-23.828-40.172-35.803c-2.02-1.805-3.948-3.431-6.004,0.506
			c13.077,13.466,28.002,25.246,40.639,39.262c-0.547,0.583-1.094,1.166-1.64,1.749c-12.821-11.222-25.641-22.444-38.46-33.667
			c-0.34,0.367-0.68,0.735-1.021,1.102c2.137,1.834,4.349,3.59,6.401,5.515c16.89,15.843,33.765,31.701,50.615,47.587
			c10.772,10.156,13.469,22.734,7.788,36.208c-2.524,5.987-1.994,11.786,1.245,17.25c5.324,8.985,15.84,9.153,21.45,0.424
			c3.393-5.279,6.674-10.624,12.899-12.58c4.347,3.247,8.563,6.395,13.188,9.849c-3.926,2.34-7.469,4.802-11.305,6.656
			c-5.362,2.592-11.021,4.563-16.413,7.102c-8.415,3.962-16.599,8.429-25.101,12.184c-4.979,2.198-10.055,3.88-12.872,9.511
			c-0.687-1.319-1.04-2.581-0.625-3.493c1.699-3.736,3.92-6.339,7.965-8.715c4.535-2.665,6.886-9.048,10.097-13.684
			c-3.734-5.485-5.778-5.749-9.93-1.488c-2.093,2.147-4.122,4.361-6.083,6.629c-0.728,0.84-1.914,2.313-1.638,2.824
			c1.979,3.673-1.1,5.274-2.686,7.568c-3.397,4.916-6.565,9.993-10.041,14.853c-1.289,1.803-2.92,3.652-4.829,4.67
			c-10.719,5.718-21.64,11.058-32.353,16.786c-7.856,4.202-15.5,8.803-23.117,13.154c2.649,8.325,2.892,8.456,9.951,5.311
			c4.25-1.895,8.528-3.739,12.699-5.798c15.877-7.834,31.706-15.765,47.586-23.596c1.513-0.745,3.247-1.04,5.401-1.706
			c1.066,4.998,1.966,9.213,2.866,13.429c0.287-0.042,0.575-0.084,0.863-0.126c-0.921-4.983-1.841-9.969-2.862-15.498
			c1.038-0.129,2.537-0.771,3.66-0.368c3.732,1.342,6.869,0.574,10.239-1.334c14.048-7.956,28.189-15.747,42.357-23.486
			c3.383-1.849,7.003-3.267,11.669-5.415c-1.762,3.732-2.71,6.216-4.038,8.478c-11.196,19.078-22.866,37.893-33.548,57.253
			c-6.232,11.295-11.187,23.334-16.065,35.302c-1.003,2.459-0.079,8.003,1.613,8.861c7.267,3.688,15.151,6.163,22.825,9.04
			c0.094,0.034,0.389-0.471,0.909-1.125c-6.197-3.534-12.334-7.034-18.473-10.534c0.205-0.367,0.411-0.734,0.617-1.102
			c6.043,3.173,12.086,6.345,18.13,9.518c0.198-0.354,0.396-0.707,0.595-1.061c-6.092-3.508-12.183-7.017-18.275-10.524
			c0.201-0.365,0.403-0.73,0.604-1.097c6.263,3.296,12.527,6.592,18.79,9.888c0.22-0.428,0.439-0.857,0.658-1.286
			c-6.332-3.509-12.663-7.019-18.994-10.526c0.226-0.397,0.451-0.795,0.677-1.191c6.296,3.3,12.593,6.6,18.89,9.899
			c0.212-0.399,0.424-0.8,0.637-1.199c-6.468-3.589-12.936-7.178-19.404-10.767c0.229-0.402,0.458-0.805,0.686-1.207
			c6.479,3.403,12.958,6.809,19.437,10.212c0.221-0.394,0.442-0.788,0.663-1.182c-6.501-3.623-13.003-7.247-19.504-10.87
			c0.23-0.396,0.461-0.792,0.692-1.188c6.564,3.459,13.13,6.92,19.695,10.38c0.213-0.419,0.426-0.837,0.639-1.256
			c-6.587-3.701-13.175-7.401-19.762-11.104c0.207-0.366,0.413-0.732,0.62-1.1c6.634,3.467,13.267,6.932,19.901,10.398
			c0.202-0.368,0.404-0.735,0.606-1.104c-6.616-3.758-13.233-7.517-19.85-11.274c0.193-0.373,0.388-0.747,0.581-1.12
			c6.742,3.528,13.483,7.058,20.224,10.587c0.201-0.383,0.402-0.766,0.604-1.148c-6.619-3.748-13.239-7.496-19.859-11.243
			c0.193-0.359,0.386-0.719,0.578-1.077c6.593,3.457,13.186,6.912,19.779,10.369c0.194-0.391,0.389-0.78,0.583-1.171
			c-6.434-3.648-12.869-7.296-19.302-10.944c0.209-0.36,0.418-0.72,0.628-1.08c6.639,3.468,13.278,6.936,19.917,10.401
			c0.194-0.371,0.389-0.743,0.584-1.115c-6.492-3.696-12.984-7.395-19.477-11.091c0.211-0.364,0.421-0.729,0.632-1.093
			c6.551,3.438,13.102,6.879,19.653,10.317c0.202-0.398,0.403-0.797,0.604-1.195c-6.361-3.581-12.723-7.162-19.084-10.743
			c0.191-0.362,0.383-0.726,0.574-1.088c6.526,3.374,13.053,6.747,19.58,10.122c0.187-0.374,0.374-0.747,0.561-1.12
			c-6.27-3.542-12.54-7.083-18.81-10.625c0.211-0.368,0.421-0.737,0.632-1.104c6.463,3.355,12.926,6.712,19.389,10.067
			c0.188-0.359,0.378-0.718,0.567-1.077c-6.408-3.605-12.818-7.212-19.226-10.817c0.222-0.391,0.443-0.782,0.665-1.173
			c6.538,3.461,13.076,6.924,19.615,10.387c0.22-0.423,0.439-0.846,0.659-1.269C194.846,312.206,188.398,308.618,181.95,305.03z"/>
		<path fill-rule="evenodd" clip-rule="evenodd" d="M181.95,305.03c6.448,3.588,12.896,7.176,19.344,10.764
			c-0.22,0.423-0.439,0.846-0.659,1.269c-6.539-3.463-13.077-6.926-19.615-10.387c-0.222,0.391-0.443,0.782-0.665,1.173
			c6.408,3.605,12.818,7.212,19.226,10.817c-0.189,0.359-0.379,0.718-0.567,1.077c-6.463-3.355-12.926-6.712-19.389-10.067
			c-0.211,0.367-0.421,0.736-0.632,1.104c6.27,3.542,12.54,7.083,18.81,10.625c-0.187,0.373-0.374,0.746-0.561,1.12
			c-6.527-3.375-13.053-6.748-19.58-10.122c-0.191,0.362-0.383,0.726-0.574,1.088c6.361,3.581,12.723,7.162,19.084,10.743
			c-0.201,0.398-0.402,0.797-0.604,1.195c-6.551-3.438-13.102-6.879-19.653-10.317c-0.211,0.364-0.421,0.729-0.632,1.093
			c6.493,3.696,12.985,7.395,19.477,11.091c-0.195,0.372-0.39,0.744-0.584,1.115c-6.639-3.466-13.278-6.934-19.917-10.401
			c-0.21,0.36-0.419,0.72-0.628,1.08c6.434,3.648,12.868,7.296,19.302,10.944c-0.194,0.391-0.389,0.78-0.583,1.171
			c-6.593-3.457-13.186-6.912-19.779-10.369c-0.192,0.358-0.385,0.718-0.578,1.077c6.62,3.747,13.24,7.495,19.859,11.243
			c-0.201,0.383-0.402,0.766-0.604,1.148c-6.741-3.529-13.482-7.059-20.224-10.587c-0.193,0.373-0.388,0.747-0.581,1.12
			c6.617,3.758,13.234,7.517,19.85,11.274c-0.202,0.368-0.404,0.735-0.606,1.104c-6.634-3.467-13.267-6.932-19.901-10.398
			c-0.207,0.367-0.413,0.733-0.62,1.1c6.587,3.702,13.175,7.402,19.762,11.104c-0.213,0.419-0.426,0.837-0.639,1.256
			c-6.564-3.46-13.13-6.921-19.695-10.38c-0.231,0.396-0.462,0.792-0.692,1.188c6.501,3.623,13.003,7.247,19.504,10.87
			c-0.221,0.394-0.442,0.788-0.663,1.182c-6.479-3.403-12.958-6.809-19.437-10.212c-0.229,0.402-0.457,0.805-0.686,1.207
			c6.468,3.589,12.936,7.178,19.404,10.767c-0.213,0.399-0.425,0.8-0.637,1.199c-6.297-3.3-12.594-6.6-18.89-9.899
			c-0.226,0.396-0.451,0.794-0.677,1.191c6.331,3.508,12.662,7.018,18.994,10.526c-0.219,0.429-0.438,0.858-0.658,1.286
			c-6.263-3.296-12.527-6.592-18.79-9.888c-0.201,0.366-0.403,0.731-0.604,1.097c6.092,3.508,12.183,7.017,18.275,10.524
			c-0.198,0.354-0.396,0.707-0.595,1.061c-6.044-3.173-12.087-6.345-18.13-9.518c-0.206,0.367-0.412,0.734-0.617,1.102
			c6.138,3.5,12.276,7,18.473,10.534c-0.521,0.654-0.815,1.159-0.909,1.125c-7.674-2.877-15.559-5.352-22.825-9.04
			c-1.692-0.858-2.616-6.402-1.613-8.861c4.878-11.968,9.833-24.007,16.065-35.302c10.682-19.36,22.353-38.175,33.548-57.253
			c1.327-2.262,2.275-4.745,4.038-8.478c-4.666,2.148-8.286,3.566-11.669,5.415c-14.168,7.739-28.309,15.53-42.357,23.486
			c-3.37,1.908-6.507,2.676-10.239,1.334c-1.123-0.403-2.622,0.239-3.66,0.368c1.021,5.529,1.941,10.515,2.862,15.498
			c-0.288,0.042-0.576,0.084-0.863,0.126c-0.899-4.216-1.799-8.431-2.866-13.429c-2.154,0.666-3.888,0.961-5.401,1.706
			c-15.88,7.831-31.709,15.762-47.586,23.596c-4.171,2.059-8.449,3.903-12.699,5.798c-7.059,3.146-7.302,3.015-9.951-5.311
			c7.617-4.352,15.261-8.952,23.117-13.154c10.713-5.729,21.633-11.068,32.353-16.786c1.908-1.018,3.54-2.867,4.829-4.67
			c3.475-4.859,6.644-9.937,10.041-14.853c1.586-2.294,4.665-3.896,2.686-7.568c-0.275-0.511,0.911-1.984,1.638-2.824
			c1.961-2.268,3.99-4.481,6.083-6.629c4.152-4.261,6.196-3.997,9.93,1.488c-3.211,4.636-5.562,11.019-10.097,13.684
			c-4.044,2.376-6.266,4.979-7.965,8.715c-0.415,0.912-0.062,2.174,0.625,3.493c2.816-5.631,7.893-7.312,12.872-9.511
			c8.502-3.755,16.686-8.222,25.101-12.184c5.392-2.538,11.051-4.51,16.413-7.102c3.836-1.854,7.379-4.316,11.305-6.656
			c-4.625-3.454-8.841-6.602-13.188-9.849c-6.225,1.956-9.506,7.301-12.899,12.58c-5.61,8.729-16.126,8.561-21.45-0.424
			c-3.239-5.464-3.769-11.262-1.245-17.25c5.681-13.473,2.984-26.052-7.788-36.208c-16.85-15.886-33.725-31.744-50.615-47.587
			c-2.052-1.925-4.264-3.681-6.401-5.515c0.341-0.367,0.681-0.735,1.021-1.102c12.82,11.222,25.64,22.444,38.46,33.667
			c0.546-0.583,1.093-1.166,1.64-1.749c-12.637-14.016-27.562-25.796-40.639-39.262c2.056-3.937,3.984-2.311,6.004-0.506
			c13.414,11.975,26.845,23.93,40.172,35.803c-2.599,5.069-2.42,5.235,2.976,6.22c1.143,0.208,2.57,1.351,3.026,2.42
			c3.281,7.692,9.608,12.25,16.665,15.661c6.15,2.974,12.771,4.976,18.899,7.3c-0.302-0.566-0.946-1.779-1.59-2.992
			c0.237-0.166,0.473-0.332,0.71-0.499c1.747,2.787,3.633,5.498,5.211,8.377c3.006,5.488,6.958,8.158,13.738,7.469
			c10.084-1.025,16.972,7.266,15.202,17.272c-0.144,0.815-0.415,1.609-0.638,2.411c-2.428,8.735-2.428,8.735,6.636,11.504
			c2.324-4.308,4.091-8.246,2.616-13.819c-9.324-35.242-12.33-71.13-9.552-107.47c0.325-4.255,1.344-8.554,2.762-12.58
			c0.558-1.582,3.34-3.649,4.672-3.374c1.771,0.365,3.875,2.561,4.466,4.408c0.936,2.931,1.066,6.234,0.968,9.361
			c-0.908,29.188-0.275,58.295,4.135,87.228c0.301,1.974,0.615,3.948,0.956,5.915c0.074,0.428,0.289,0.83,0.739,2.07
			c2.314-4.933,4.438-9.189,6.273-13.566c0.435-1.036,0.347-2.782-0.266-3.68c-2.562-3.757-2.197-7.513-0.616-11.409
			c7.009-17.267,13.979-34.548,21.05-51.791c2.251-5.487,4.277-6.339,9.078-4.316c5.146,2.168,7.057,5.949,5.203,10.471
			c-8.894,21.705-17.682,43.454-26.806,65.062c-2.233,5.29-5.591,10.102-8.426,15.139c-3.281,5.83-4.309,11.877-1.564,18.54
			c22.467-23.903,44.895-47.766,67.324-71.628c0.312,0.192,0.626,0.385,0.939,0.578c-1.15,0.211-2.299,0.422-4.649,0.854
			c2.521-4.889,5.848-7.78,9.636-10.371c2.441-1.67,4.701-3.612,6.989-5.496c2.128-1.752,3.812-4.222,7.332-2.485
			c0.911,0.449,2.729-0.707,4.031-1.329c4.907-2.343,9.773-4.77,14.602-7.14c5.266,7.956,10.098,15.258,15.377,23.233
			c-6.571,1.452-7.37,7.725-10.494,12.393c-4.575,6.836-9.65,13.703-15.825,19.036c-22.586,19.51-48.396,33.493-77.091,41.864
			c-4.398,1.283-6.372,3.551-6.893,7.833c-1.743,14.33-2.627,12.936,9.53,20.109c5.155,3.041,11.057,4.813,16.224,7.837
			c2.72,1.592,4.592,4.635,6.833,7.034c0.223,0.237,0.284,0.671,0.537,0.828c7.295,4.537,11.274,13.078,19.44,16.373
			c1.881,0.759,5.023-0.093,6.969-1.245c19.369-11.471,38.445-23.391,54.178-39.809c2.029-2.117,3.705-2.419,5.819-0.246
			c4.607,4.733,9.291,9.391,14.132,14.269c-3.028,3.209-5.645,5.555-7.754,8.291c-9.844,12.764-20.434,25.069-29.081,38.609
			c-11.188,17.52-25.514,31.1-43.779,40.555c-9.144,4.734-11.215,2.595-15.98-2.811c-0.771-0.874-1.515-1.774-2.23-2.694
			c-8.907-11.453-9.084-14.109-1.79-26.649c6.511-11.19,4.869-18.236-5.867-25.326c-14.086-9.302-25.446-21.379-35.417-34.863
			c-0.974-1.316-1.997-2.594-3.289-4.266c-13.084,12.279-23.017,26.238-28.973,42.833c-1.501,4.181-0.18,8.265,3.002,11.503
			c1.502,1.53,3.173,2.895,4.278,5.336c-6.044-3.142-12.088-6.281-18.133-9.423c-0.193,0.368-0.387,0.736-0.58,1.104
			c5.933,3.373,11.867,6.745,17.799,10.118c-0.194,0.399-0.388,0.799-0.582,1.198c-6.179-3.211-12.358-6.423-18.537-9.633
			c-0.19,0.363-0.381,0.726-0.571,1.089c6.004,3.401,12.008,6.804,18.013,10.205c-0.209,0.384-0.417,0.767-0.625,1.149
			c-6.304-3.272-12.607-6.547-18.911-9.819c-0.199,0.369-0.397,0.738-0.596,1.108c6.067,3.394,12.134,6.786,18.201,10.179
			c-0.207,0.398-0.415,0.798-0.622,1.196c-6.372-3.288-12.744-6.575-19.116-9.864c-0.187,0.358-0.374,0.717-0.561,1.074
			c6.146,3.465,12.293,6.928,18.44,10.393c-0.19,0.38-0.381,0.76-0.571,1.14c-6.289-3.282-12.577-6.565-18.865-9.848
			c-0.215,0.373-0.429,0.746-0.643,1.118c6.136,3.467,12.271,6.934,18.407,10.4c-0.168,0.341-0.336,0.683-0.504,1.024
			c-6.51-3.292-13.019-6.586-19.529-9.878c-0.179,0.35-0.358,0.698-0.537,1.049c6.288,3.528,12.577,7.056,18.865,10.583
			c-0.208,0.418-0.415,0.837-0.622,1.255c-6.486-3.427-12.972-6.853-19.458-10.279C182.51,304.287,182.23,304.658,181.95,305.03z
			 M188.47,206.379c-2.846-22.446-14.467-36.111-31.631-36.897c1.565,4.629,3.161,9.128,4.607,13.675
			c2.64,8.301,7.383,15.071,14.202,20.504C179.55,206.769,183.584,208.342,188.47,206.379z M177.783,215.479
			c0.247-5.758-5.306-12.464-10.529-12.713c-5.274-0.251-9.008,3.846-9.277,10.18c-0.292,6.883,4.367,13.255,9.917,13.562
			C173.183,226.801,177.503,221.983,177.783,215.479z M209.951,201.994c0.166-6.536-4.035-12.094-9.188-12.158
			c-5.417-0.068-9.467,4.183-9.515,9.987c-0.048,5.717,5.08,11.353,10.376,11.408C206.385,211.279,209.812,207.478,209.951,201.994z
			 M325.301,137.126c-0.309-0.405-0.617-0.812-0.926-1.218c-0.708,0.387-1.512,0.662-2.11,1.177
			c-22.223,19.109-44.45,38.213-66.584,57.426c-1.564,1.359-2.413,3.545-3.595,5.348c0.216,0.114,0.431,0.229,0.646,0.342
			C276.922,179.177,301.111,158.152,325.301,137.126z M126.891,268.712c-0.401-0.733-0.804-1.467-1.205-2.2
			c-15.159,7.688-30.319,15.378-45.479,23.066c0.339,0.675,0.679,1.349,1.019,2.022C96.448,283.972,111.67,276.342,126.891,268.712z
			 M338.044,123.119c-0.461,0.308-0.922,0.616-1.383,0.923c3.982,5.992,7.963,11.984,11.945,17.976
			c0.522-0.351,1.045-0.701,1.568-1.052C346.131,135.018,342.087,129.068,338.044,123.119z M228.214,232.934
			c-1.864-1.223-3.207-2.731-4.021-2.487c-1.235,0.372-2.103,1.962-3.127,3.035c1.168,0.878,2.271,2.294,3.527,2.447
			C225.461,236.034,226.542,234.394,228.214,232.934z"/>
		<path fill-rule="evenodd" clip-rule="evenodd" fill="#FFFFFF" d="M188.47,206.379c-4.885,1.963-8.92,0.39-12.822-2.718
			c-6.819-5.433-11.562-12.204-14.202-20.504c-1.446-4.546-3.042-9.045-4.607-13.675
			C174.003,170.268,185.624,183.933,188.47,206.379z"/>
		<path fill-rule="evenodd" clip-rule="evenodd" fill="#FFFFFF" d="M177.783,215.479c-0.279,6.504-4.6,11.322-9.89,11.029
			c-5.55-0.308-10.208-6.68-9.917-13.562c0.269-6.333,4.002-10.431,9.277-10.18C172.477,203.015,178.03,209.721,177.783,215.479z"/>
		<path fill-rule="evenodd" clip-rule="evenodd" fill="#FFFFFF" d="M209.951,201.994c-0.139,5.484-3.566,9.285-8.327,9.236
			c-5.296-0.055-10.424-5.69-10.376-11.408c0.048-5.804,4.097-10.055,9.515-9.987C205.917,189.9,210.117,195.458,209.951,201.994z"
			/>
		<path fill-rule="evenodd" clip-rule="evenodd" fill="#FFFFFF" d="M325.301,137.126c-24.189,21.026-48.379,42.05-72.569,63.075
			c-0.215-0.113-0.43-0.228-0.646-0.342c1.182-1.803,2.03-3.989,3.595-5.348c22.134-19.213,44.361-38.317,66.584-57.426
			c0.599-0.515,1.402-0.79,2.11-1.177C324.684,136.315,324.992,136.721,325.301,137.126z"/>
		<path fill-rule="evenodd" clip-rule="evenodd" fill="#FFFFFF" d="M126.891,268.712c-15.221,7.63-30.443,15.26-45.665,22.889
			c-0.34-0.674-0.68-1.348-1.019-2.022c15.159-7.688,30.319-15.378,45.479-23.066C126.087,267.245,126.489,267.979,126.891,268.712z
			"/>
		<path fill-rule="evenodd" clip-rule="evenodd" fill="#FFFFFF" d="M338.044,123.119c4.043,5.949,8.087,11.899,12.131,17.847
			c-0.523,0.351-1.046,0.701-1.568,1.052c-3.982-5.992-7.963-11.984-11.945-17.976C337.122,123.734,337.583,123.427,338.044,123.119
			z"/>
		<path fill-rule="evenodd" clip-rule="evenodd" fill="#FFFFFF" d="M228.214,232.934c-1.672,1.46-2.753,3.101-3.621,2.995
			c-1.256-0.153-2.359-1.569-3.527-2.447c1.024-1.073,1.892-2.663,3.127-3.035C225.007,230.202,226.35,231.711,228.214,232.934z"/>
	</g>
</g>
</svg>
