<?xml version="1.0" encoding="utf-8"?>
<!-- Generator: Adobe Illustrator 16.0.0, SVG Export Plug-In . SVG Version: 6.00 Build 0)  -->
<!DOCTYPE svg PUBLIC "-//W3C//DTD SVG 1.1//EN" "http://www.w3.org/Graphics/SVG/1.1/DTD/svg11.dtd">
<svg version="1.1" id="Layer_1" xmlns="http://www.w3.org/2000/svg" xmlns:xlink="http://www.w3.org/1999/xlink" x="0px" y="0px"
	 width="127.834px" height="70.963px" viewBox="0 0 127.834 70.963" enable-background="new 0 0 127.834 70.963"
	 xml:space="preserve">
<g>
	<g>
		<path fill="none" d="M129.384,70.963 M92.616,28.512c-1.748,0.925-2.455,1.341-3.197,1.685
			c-23.399,10.854-48,17.962-73.111,23.489c-3.741,0.823-7.514,1.573-10.905,3.483c-2.297,1.293-4.163,2.997-3.721,5.917
			c0.45,2.977,2.479,4.506,5.33,5.243c4.372,1.131,8.664,0.294,12.852-0.645c28.928-6.488,56.63-16.319,82.503-30.949
			c3.336-1.886,6.41-3.104,10.352-1.793c3.285,1.093,6.818,1.718,10.32,0.543c1.926-0.646,4.312-1.428,3.781-3.84
			c-0.48-2.177-2.76-1.046-4.326-0.956c-0.998,0.057-1.99,0.183-2.988,0.228c-3.18,0.141-5.705,0.209-5.467-4.562
			c0.176-3.471-2.766-5.151-6.379-4.286c-2.16,0.518-4.207,0.776-6.346-0.107c-12.051-4.978-24.756-7.825-37.251-11.357
			C53.166,7.523,42.281,4.393,31.342,1.462c-4.8-1.286-9.725,1.781-10.772,6.444c-1.162,5.177,2.769,6.175,6.307,7.218
			c11.98,3.529,24.006,6.896,35.982,10.438c4.354,1.287,8.479,1.672,12.374-1.241c1.105-0.828,2.387-1.117,3.781-0.618
			C83.228,25.209,87.45,26.687,92.616,28.512z"/>
		<path fill-rule="evenodd" clip-rule="evenodd" d="M92.616,28.512c-5.166-1.825-9.389-3.303-13.602-4.81
			c-1.395-0.499-2.676-0.21-3.781,0.618c-3.895,2.913-8.021,2.528-12.374,1.241c-11.976-3.541-24.002-6.908-35.982-10.438
			c-3.539-1.043-7.469-2.041-6.307-7.218c1.047-4.663,5.972-7.73,10.772-6.444c10.939,2.931,21.824,6.062,32.721,9.143
			c12.495,3.532,25.2,6.38,37.251,11.357c2.139,0.884,4.186,0.625,6.346,0.107c3.613-0.865,6.555,0.815,6.379,4.286
			c-0.238,4.771,2.287,4.702,5.467,4.562c0.998-0.045,1.99-0.171,2.988-0.228c1.566-0.09,3.846-1.221,4.326,0.956
			c0.531,2.412-1.855,3.193-3.781,3.84c-3.502,1.175-7.035,0.55-10.32-0.543c-3.941-1.311-7.016-0.093-10.352,1.793
			c-25.873,14.63-53.575,24.461-82.503,30.949c-4.188,0.938-8.48,1.775-12.852,0.645c-2.851-0.737-4.879-2.267-5.33-5.243
			c-0.441-2.92,1.424-4.624,3.721-5.917c3.391-1.91,7.164-2.66,10.905-3.483c25.11-5.527,49.711-12.635,73.111-23.489
			C90.161,29.853,90.868,29.437,92.616,28.512z M65.328,23.552c4.954,0.42,7.019-1.622,7.667-4.528
			c0.781-3.489-2.654-3.17-4.596-3.767c-7.135-2.194-14.332-4.195-21.518-6.222c-5.747-1.62-11.483-3.302-17.285-4.701
			c-3.191-0.77-5.696,0.693-6.524,3.884c-0.931,3.585,2.11,3.921,4.459,4.608c10.031,2.935,20.063,5.866,30.11,8.748
			C60.664,22.44,63.732,23.145,65.328,23.552z M100.556,24.171c-6.691-2.407-12.672-4.765-19.018-6.042
			c-0.916-0.184-2.121-0.644-2.604,0.613c-0.549,1.431,0.549,2.212,1.65,2.622c4.357,1.623,8.77,3.1,13.129,4.721
			C96.011,26.938,97.909,26.37,100.556,24.171z"/>
		<path fill-rule="evenodd" clip-rule="evenodd" fill="none" d="M65.328,23.552c-1.596-0.407-4.665-1.111-7.687-1.978
			c-10.047-2.882-20.079-5.813-30.11-8.748c-2.349-0.688-5.39-1.023-4.459-4.608c0.829-3.19,3.333-4.653,6.524-3.884
			c5.802,1.399,11.538,3.081,17.285,4.701c7.187,2.026,14.383,4.027,21.518,6.222c1.941,0.597,5.377,0.277,4.596,3.767
			C72.347,21.93,70.282,23.972,65.328,23.552z"/>
		<path fill-rule="evenodd" clip-rule="evenodd" fill="none" d="M100.556,24.171c-2.646,2.199-4.545,2.768-6.842,1.914
			c-4.359-1.621-8.771-3.098-13.129-4.721c-1.102-0.41-2.199-1.191-1.65-2.622c0.482-1.257,1.688-0.797,2.604-0.613
			C87.884,19.406,93.864,21.764,100.556,24.171z"/>
	</g>
</g>
</svg>
